<svg width="42" height="43" viewBox="0 0 42 43" fill="none" xmlns="http://www.w3.org/2000/svg">
<path d="M20.9859 22.2033C22.2268 22.2033 23.4557 21.9589 24.6022 21.484C25.7487 21.0091 26.7905 20.313 27.668 19.4355C28.5455 18.5579 29.2416 17.5162 29.7165 16.3697C30.1914 15.2231 30.4359 13.9943 30.4359 12.7533C30.4359 11.5123 30.1914 10.2835 29.7165 9.13694C29.2416 7.99042 28.5455 6.94865 27.668 6.07114C26.7905 5.19363 25.7487 4.49755 24.6022 4.02264C23.4557 3.54773 22.2268 3.3033 20.9859 3.3033C18.4796 3.3033 16.0759 4.29892 14.3037 6.07114C12.5315 7.84336 11.5359 10.247 11.5359 12.7533C11.5359 15.2596 12.5315 17.6632 14.3037 19.4355C16.0759 21.2077 18.4796 22.2033 20.9859 22.2033V22.2033ZM21.0006 6.68949e-07C23.7667 -0.000900379 26.4562 0.908478 28.6543 2.58783C30.8523 4.26717 32.4366 6.62316 33.1627 9.29227C33.8889 11.9614 33.7166 14.7953 32.6723 17.3567C31.628 19.9182 29.7699 22.0648 27.3846 23.4654C35.1294 25.7964 40.9464 32.3232 41.9901 40.4292C42.0888 41.1999 41.5155 41.8992 40.7091 41.9937C39.9048 42.0882 39.1698 41.5422 39.0711 40.7715C37.9371 31.9725 30.3162 25.347 21.0741 25.347C11.7816 25.347 4.06195 31.9851 2.93005 40.7715C2.83135 41.5422 2.09635 42.0882 1.29205 41.9937C0.485653 41.8992 -0.0876472 41.1999 0.0110528 40.4292C1.05265 32.3568 6.90115 25.8384 14.6586 23.4864C12.266 22.0921 10.3994 19.9485 9.34731 17.387C8.29525 14.8255 8.11633 11.9887 8.83823 9.31529C9.56013 6.64187 11.1426 4.28073 13.3411 2.59692C15.5395 0.913118 18.2314 0.00043945 21.0006 6.68949e-07V6.68949e-07Z" fill="black"/>
</svg>
