<svg viewBox="0 0 37 37" fill="none" xmlns="http://www.w3.org/2000/svg">
<path d="M18.5 9.81633C16.7825 9.81633 15.1036 10.3256 13.6756 11.2798C12.2476 12.234 11.1346 13.5902 10.4773 15.1769C9.82009 16.7636 9.64812 18.5096 9.98318 20.1941C10.3182 21.8786 11.1453 23.4259 12.3597 24.6403C13.5741 25.8547 15.1214 26.6818 16.8059 27.0168C18.4904 27.3519 20.2364 27.1799 21.8231 26.5227C23.4098 25.8654 24.766 24.7524 25.7202 23.3244C26.6744 21.8964 27.1837 20.2175 27.1837 18.5C27.1837 16.1969 26.2688 13.9882 24.6403 12.3597C23.0118 10.7312 20.8031 9.81633 18.5 9.81633V9.81633ZM18.5 24.9184C17.2306 24.9184 15.9896 24.5419 14.9341 23.8367C13.8787 23.1314 13.056 22.129 12.5702 20.9562C12.0844 19.7834 11.9573 18.4929 12.205 17.2478C12.4526 16.0028 13.0639 14.8592 13.9615 13.9615C14.8592 13.0639 16.0028 12.4526 17.2478 12.205C18.4929 11.9573 19.7834 12.0844 20.9562 12.5702C22.129 13.056 23.1314 13.8787 23.8367 14.9341C24.5419 15.9896 24.9184 17.2306 24.9184 18.5C24.9134 20.2007 24.2356 21.8304 23.033 23.033C21.8304 24.2356 20.2007 24.9134 18.5 24.9184ZM26.8061 0H10.1939C7.49029 0 4.89744 1.07399 2.98572 2.98572C1.07399 4.89744 0 7.49029 0 10.1939V26.8061C0 29.5097 1.07399 32.1026 2.98572 34.0143C4.89744 35.926 7.49029 37 10.1939 37H26.8061C29.5097 37 32.1026 35.926 34.0143 34.0143C35.926 32.1026 37 29.5097 37 26.8061V10.1939C37 7.49029 35.926 4.89744 34.0143 2.98572C32.1026 1.07399 29.5097 0 26.8061 0V0ZM34.7347 26.8061C34.7347 28.9089 33.8994 30.9256 32.4125 32.4125C30.9256 33.8994 28.9089 34.7347 26.8061 34.7347H10.1939C8.09109 34.7347 6.07443 33.8994 4.58753 32.4125C3.10064 30.9256 2.26531 28.9089 2.26531 26.8061V10.1939C2.26531 8.09109 3.10064 6.07443 4.58753 4.58753C6.07443 3.10064 8.09109 2.26531 10.1939 2.26531H26.8061C28.9089 2.26531 30.9256 3.10064 32.4125 4.58753C33.8994 6.07443 34.7347 8.09109 34.7347 10.1939V26.8061ZM30.2041 8.68367C30.2041 9.05704 30.0934 9.42201 29.8859 9.73245C29.6785 10.0429 29.3837 10.2849 29.0387 10.4277C28.6938 10.5706 28.3142 10.608 27.948 10.5352C27.5819 10.4623 27.2455 10.2825 26.9815 10.0185C26.7175 9.75451 26.5377 9.41815 26.4648 9.05196C26.392 8.68577 26.4294 8.3062 26.5723 7.96126C26.7151 7.61632 26.9571 7.32149 27.2675 7.11406C27.578 6.90663 27.943 6.79592 28.3163 6.79592C28.817 6.79592 29.2971 6.99481 29.6512 7.34883C30.0052 7.70285 30.2041 8.18301 30.2041 8.68367Z" fill="black"/>
</svg>
