<svg  viewBox="0 0 31 28" fill="none" xmlns="http://www.w3.org/2000/svg">
<path d="M0.967773 0.982974C0.967773 0.722532 1.07217 0.472757 1.25799 0.288597C1.44381 0.104437 1.69584 0.000976562 1.95863 0.000976562H4.93119C5.15221 0.00103708 5.36687 0.0743331 5.54102 0.209209C5.71518 0.344084 5.83883 0.532795 5.89232 0.745331L6.69491 3.92897H29.7025C29.853 3.92901 30.0016 3.96303 30.1368 4.02845C30.2721 4.09387 30.3905 4.18897 30.4832 4.30652C30.5758 4.42408 30.6402 4.56101 30.6715 4.70692C30.7028 4.85283 30.7001 5.00388 30.6637 5.14861L27.6911 16.9326C27.6376 17.1451 27.514 17.3338 27.3398 17.4687C27.1656 17.6036 26.951 17.6769 26.73 17.6769H8.8946C8.67358 17.6769 8.45892 17.6036 8.28477 17.4687C8.11061 17.3338 7.98696 17.1451 7.93347 16.9326L4.15832 1.96497H1.95863C1.69584 1.96497 1.44381 1.86151 1.25799 1.67735C1.07217 1.49319 0.967773 1.24342 0.967773 0.982974ZM7.19033 5.89296L9.66747 15.7129H25.9571L28.4342 5.89296H7.19033ZM10.8763 21.6049C10.3507 21.6049 9.84667 21.8118 9.47503 22.1802C9.10339 22.5485 8.8946 23.048 8.8946 23.5689C8.8946 24.0898 9.10339 24.5894 9.47503 24.9577C9.84667 25.326 10.3507 25.5329 10.8763 25.5329C11.4019 25.5329 11.9059 25.326 12.2776 24.9577C12.6492 24.5894 12.858 24.0898 12.858 23.5689C12.858 23.048 12.6492 22.5485 12.2776 22.1802C11.9059 21.8118 11.4019 21.6049 10.8763 21.6049ZM6.91289 23.5689C6.91289 22.5271 7.33047 21.5281 8.07375 20.7914C8.81704 20.0548 9.82515 19.6409 10.8763 19.6409C11.9275 19.6409 12.9356 20.0548 13.6789 20.7914C14.4222 21.5281 14.8397 22.5271 14.8397 23.5689C14.8397 24.6107 14.4222 25.6098 13.6789 26.3464C12.9356 27.0831 11.9275 27.4969 10.8763 27.4969C9.82515 27.4969 8.81704 27.0831 8.07375 26.3464C7.33047 25.6098 6.91289 24.6107 6.91289 23.5689ZM24.7483 21.6049C24.2227 21.6049 23.7186 21.8118 23.347 22.1802C22.9753 22.5485 22.7666 23.048 22.7666 23.5689C22.7666 24.0898 22.9753 24.5894 23.347 24.9577C23.7186 25.326 24.2227 25.5329 24.7483 25.5329C25.2738 25.5329 25.7779 25.326 26.1495 24.9577C26.5212 24.5894 26.73 24.0898 26.73 23.5689C26.73 23.048 26.5212 22.5485 26.1495 22.1802C25.7779 21.8118 25.2738 21.6049 24.7483 21.6049ZM20.7848 23.5689C20.7848 22.5271 21.2024 21.5281 21.9457 20.7914C22.689 20.0548 23.6971 19.6409 24.7483 19.6409C25.7994 19.6409 26.8075 20.0548 27.5508 20.7914C28.2941 21.5281 28.7117 22.5271 28.7117 23.5689C28.7117 24.6107 28.2941 25.6098 27.5508 26.3464C26.8075 27.0831 25.7994 27.4969 24.7483 27.4969C23.6971 27.4969 22.689 27.0831 21.9457 26.3464C21.2024 25.6098 20.7848 24.6107 20.7848 23.5689Z" fill="black"/>
</svg>
