<svg  viewBox="0 0 46 42" fill="none" xmlns="http://www.w3.org/2000/svg">
<path d="M0 1.5C0 1.10218 0.159461 0.720645 0.443302 0.43934C0.727143 0.158036 1.11212 0 1.51353 0H6.05411C6.39172 9.24344e-05 6.71961 0.112052 6.98563 0.318074C7.25165 0.524096 7.44053 0.812352 7.52223 1.137L8.74819 6H43.8923C44.1222 6.00006 44.3491 6.05203 44.5557 6.15196C44.7623 6.25189 44.9432 6.39715 45.0847 6.57672C45.2262 6.75629 45.3246 6.96545 45.3724 7.18832C45.4201 7.4112 45.4161 7.64193 45.3604 7.863L40.8198 25.863C40.7381 26.1876 40.5493 26.4759 40.2832 26.6819C40.0172 26.8879 39.6893 26.9999 39.3517 27H12.1082C11.7706 26.9999 11.4427 26.8879 11.1767 26.6819C10.9107 26.4759 10.7218 26.1876 10.6401 25.863L4.87356 3H1.51353C1.11212 3 0.727143 2.84196 0.443302 2.56066C0.159461 2.27936 0 1.89782 0 1.5ZM9.50495 9L13.2888 24H38.1712L41.955 9H9.50495ZM15.1353 33C14.3325 33 13.5625 33.3161 12.9948 33.8787C12.4271 34.4413 12.1082 35.2044 12.1082 36C12.1082 36.7956 12.4271 37.5587 12.9948 38.1213C13.5625 38.6839 14.3325 39 15.1353 39C15.9381 39 16.708 38.6839 17.2757 38.1213C17.8434 37.5587 18.1623 36.7956 18.1623 36C18.1623 35.2044 17.8434 34.4413 17.2757 33.8787C16.708 33.3161 15.9381 33 15.1353 33ZM9.08117 36C9.08117 34.4087 9.71901 32.8826 10.8544 31.7574C11.9897 30.6321 13.5296 30 15.1353 30C16.7409 30 18.2808 30.6321 19.4162 31.7574C20.5515 32.8826 21.1894 34.4087 21.1894 36C21.1894 37.5913 20.5515 39.1174 19.4162 40.2426C18.2808 41.3679 16.7409 42 15.1353 42C13.5296 42 11.9897 41.3679 10.8544 40.2426C9.71901 39.1174 9.08117 37.5913 9.08117 36ZM36.3247 33C35.5218 33 34.7519 33.3161 34.1842 33.8787C33.6165 34.4413 33.2976 35.2044 33.2976 36C33.2976 36.7956 33.6165 37.5587 34.1842 38.1213C34.7519 38.6839 35.5218 39 36.3247 39C37.1275 39 37.8974 38.6839 38.4651 38.1213C39.0328 37.5587 39.3517 36.7956 39.3517 36C39.3517 35.2044 39.0328 34.4413 38.4651 33.8787C37.8974 33.3161 37.1275 33 36.3247 33ZM30.2706 36C30.2706 34.4087 30.9084 32.8826 32.0438 31.7574C33.1791 30.6321 34.719 30 36.3247 30C37.9303 30 39.4702 30.6321 40.6056 31.7574C41.7409 32.8826 42.3788 34.4087 42.3788 36C42.3788 37.5913 41.7409 39.1174 40.6056 40.2426C39.4702 41.3679 37.9303 42 36.3247 42C34.719 42 33.1791 41.3679 32.0438 40.2426C30.9084 39.1174 30.2706 37.5913 30.2706 36Z" fill="currentColor"/>
</svg>
