<svg width="40" height="37" viewBox="0 0 40 37" fill="none" xmlns="http://www.w3.org/2000/svg">
<path d="M0 1.32143C0 0.970964 0.140477 0.634854 0.390528 0.387038C0.640579 0.139222 0.97972 0 1.33335 0H5.33338C5.6308 8.14303e-05 5.91965 0.0987125 6.15401 0.280208C6.38836 0.461704 6.55475 0.715643 6.62673 1.00164L7.70674 5.28571H38.667C38.8696 5.28577 39.0694 5.33155 39.2514 5.41958C39.4334 5.50761 39.5928 5.63558 39.7175 5.79378C39.8422 5.95197 39.9288 6.13623 39.9709 6.33257C40.013 6.52891 40.0094 6.73217 39.9604 6.92693L35.9603 22.7841C35.8884 23.0701 35.722 23.324 35.4876 23.5055C35.2533 23.687 34.9644 23.7856 34.667 23.7857H10.6668C10.3693 23.7856 10.0805 23.687 9.84614 23.5055C9.61179 23.324 9.4454 23.0701 9.37342 22.7841L4.29337 2.64286H1.33335C0.97972 2.64286 0.640579 2.50364 0.390528 2.25582C0.140477 2.008 0 1.67189 0 1.32143ZM8.37341 7.92857L11.7068 21.1429H33.627L36.9603 7.92857H8.37341ZM13.3335 29.0714C12.6262 29.0714 11.9479 29.3499 11.4478 29.8455C10.9477 30.3411 10.6668 31.0134 10.6668 31.7143C10.6668 32.4152 10.9477 33.0874 11.4478 33.5831C11.9479 34.0787 12.6262 34.3571 13.3335 34.3571C14.0407 34.3571 14.719 34.0787 15.2191 33.5831C15.7192 33.0874 16.0001 32.4152 16.0001 31.7143C16.0001 31.0134 15.7192 30.3411 15.2191 29.8455C14.719 29.3499 14.0407 29.0714 13.3335 29.0714ZM8.00007 31.7143C8.00007 30.3124 8.56198 28.968 9.56219 27.9767C10.5624 26.9855 11.919 26.4286 13.3335 26.4286C14.748 26.4286 16.1045 26.9855 17.1047 27.9767C18.1049 28.968 18.6668 30.3124 18.6668 31.7143C18.6668 33.1161 18.1049 34.4606 17.1047 35.4518C16.1045 36.4431 14.748 37 13.3335 37C11.919 37 10.5624 36.4431 9.56219 35.4518C8.56198 34.4606 8.00007 33.1161 8.00007 31.7143ZM32.0003 29.0714C31.293 29.0714 30.6148 29.3499 30.1147 29.8455C29.6146 30.3411 29.3336 31.0134 29.3336 31.7143C29.3336 32.4152 29.6146 33.0874 30.1147 33.5831C30.6148 34.0787 31.293 34.3571 32.0003 34.3571C32.7075 34.3571 33.3858 34.0787 33.8859 33.5831C34.386 33.0874 34.667 32.4152 34.667 31.7143C34.667 31.0134 34.386 30.3411 33.8859 29.8455C33.3858 29.3499 32.7075 29.0714 32.0003 29.0714ZM26.6669 31.7143C26.6669 30.3124 27.2288 28.968 28.229 27.9767C29.2292 26.9855 30.5858 26.4286 32.0003 26.4286C33.4148 26.4286 34.7714 26.9855 35.7716 27.9767C36.7718 28.968 37.3337 30.3124 37.3337 31.7143C37.3337 33.1161 36.7718 34.4606 35.7716 35.4518C34.7714 36.4431 33.4148 37 32.0003 37C30.5858 37 29.2292 36.4431 28.229 35.4518C27.2288 34.4606 26.6669 33.1161 26.6669 31.7143Z" fill="black"/>
</svg>
