<svg width="23" height="37" viewBox="0 0 23 37" fill="none" xmlns="http://www.w3.org/2000/svg">
<path d="M13.1429 14.3889H23L21.9048 18.5H13.1429V37H8.7619V18.5H0V14.3889H8.7619V10.5409C8.7619 6.87583 9.16933 5.54589 9.93162 4.20567C10.6786 2.88149 11.8325 1.79863 13.2436 1.09767C14.6718 0.382333 16.089 0 19.9947 0C21.1381 0 22.1413 0.102778 23 0.308334V4.11111H19.9947C17.0945 4.11111 16.2117 4.27144 15.3114 4.72367C14.6455 5.05667 14.1505 5.52122 13.7956 6.14611C13.3137 6.99094 13.1429 7.81933 13.1429 10.5409V14.3889Z" fill="black"/>
</svg>
