<svg  viewBox="0 0 28 28" fill="none" xmlns="http://www.w3.org/2000/svg">
<path d="M14.0829 7.29582C12.8066 7.29582 11.559 7.67428 10.4978 8.38336C9.43655 9.09244 8.60944 10.1003 8.12102 11.2794C7.63259 12.4586 7.5048 13.7561 7.7538 15.0079C8.00279 16.2597 8.61739 17.4095 9.51988 18.312C10.4224 19.2145 11.5722 19.8291 12.824 20.0781C14.0758 20.3271 15.3733 20.1993 16.5524 19.7109C17.7316 19.2224 18.7394 18.3953 19.4485 17.3341C20.1576 16.2729 20.5361 15.0253 20.5361 13.7489C20.5361 12.0375 19.8562 10.3961 18.646 9.18589C17.4358 7.9757 15.7944 7.29582 14.0829 7.29582V7.29582ZM14.0829 18.5186C13.1396 18.5186 12.2174 18.2389 11.433 17.7148C10.6486 17.1907 10.0373 16.4458 9.6763 15.5742C9.31529 14.7027 9.22083 13.7437 9.40487 12.8184C9.58891 11.8932 10.0432 11.0433 10.7102 10.3763C11.3773 9.7092 12.2272 9.25493 13.1524 9.07089C14.0776 8.88685 15.0367 8.98131 15.9082 9.34231C16.7798 9.70332 17.5247 10.3147 18.0488 11.099C18.5729 11.8834 18.8526 12.8056 18.8526 13.7489C18.8489 15.0128 18.3452 16.2239 17.4515 17.1175C16.5578 18.0112 15.3468 18.5149 14.0829 18.5186ZM20.2555 0.000976562H7.91037C5.90125 0.000976562 3.97441 0.799098 2.55375 2.21976C1.13308 3.64043 0.334961 5.56726 0.334961 7.57639V19.9215C0.334961 21.9306 1.13308 23.8575 2.55375 25.2781C3.97441 26.6988 5.90125 27.4969 7.91037 27.4969H20.2555C22.2646 27.4969 24.1914 26.6988 25.6121 25.2781C27.0328 23.8575 27.8309 21.9306 27.8309 19.9215V7.57639C27.8309 5.56726 27.0328 3.64043 25.6121 2.21976C24.1914 0.799098 22.2646 0.000976563 20.2555 0.000976562V0.000976562ZM26.1475 19.9215C26.1475 21.4842 25.5267 22.9828 24.4217 24.0878C23.3168 25.1927 21.8181 25.8135 20.2555 25.8135H7.91037C6.34772 25.8135 4.84907 25.1927 3.74411 24.0878C2.63915 22.9828 2.01839 21.4842 2.01839 19.9215V7.57639C2.01839 6.01373 2.63915 4.51509 3.74411 3.41012C4.84907 2.30516 6.34772 1.6844 7.91037 1.6844H20.2555C21.8181 1.6844 23.3168 2.30516 24.4217 3.41012C25.5267 4.51509 26.1475 6.01373 26.1475 7.57639V19.9215ZM22.7806 6.4541C22.7806 6.73156 22.6983 7.00279 22.5442 7.23349C22.39 7.46419 22.171 7.64399 21.9146 7.75017C21.6583 7.85635 21.3762 7.88413 21.1041 7.83C20.832 7.77587 20.582 7.64226 20.3858 7.44607C20.1896 7.24988 20.056 6.99991 20.0019 6.72779C19.9477 6.45566 19.9755 6.17359 20.0817 5.91725C20.1879 5.66092 20.3677 5.44182 20.5984 5.28767C20.8291 5.13353 21.1003 5.05125 21.3778 5.05125C21.7498 5.05125 22.1066 5.19905 22.3697 5.46214C22.6328 5.72522 22.7806 6.08204 22.7806 6.4541Z" fill="black"/>
</svg>
