<svg  viewBox="0 0 42 42" fill="none" xmlns="http://www.w3.org/2000/svg">
<path d="M21 11.1429C19.0504 11.1429 17.1447 11.721 15.5237 12.8041C13.9027 13.8872 12.6393 15.4267 11.8932 17.2278C11.1471 19.029 10.9519 21.0109 11.3323 22.923C11.7126 24.8351 12.6514 26.5915 14.0299 27.9701C15.4085 29.3486 17.1649 30.2874 19.077 30.6677C20.9891 31.0481 22.971 30.8529 24.7722 30.1068C26.5733 29.3607 28.1128 28.0973 29.1959 26.4763C30.279 24.8553 30.8571 22.9496 30.8571 21C30.8571 18.3857 29.8186 15.8785 27.9701 14.0299C26.1215 12.1814 23.6143 11.1429 21 11.1429V11.1429ZM21 28.2857C19.559 28.2857 18.1504 27.8584 16.9523 27.0579C15.7541 26.2573 14.8203 25.1194 14.2689 23.7881C13.7174 22.4568 13.5732 20.9919 13.8543 19.5786C14.1354 18.1653 14.8293 16.8671 15.8482 15.8482C16.8671 14.8293 18.1653 14.1354 19.5786 13.8543C20.9919 13.5732 22.4568 13.7174 23.7881 14.2689C25.1194 14.8203 26.2573 15.7541 27.0579 16.9523C27.8584 18.1504 28.2857 19.559 28.2857 21C28.2801 22.9306 27.5106 24.7804 26.1455 26.1455C24.7804 27.5106 22.9306 28.2801 21 28.2857ZM30.4286 0H11.5714C8.50249 0 5.55926 1.21913 3.38919 3.38919C1.21913 5.55926 0 8.50249 0 11.5714V30.4286C0 33.4975 1.21913 36.4407 3.38919 38.6108C5.55926 40.7809 8.50249 42 11.5714 42H30.4286C33.4975 42 36.4407 40.7809 38.6108 38.6108C40.7809 36.4407 42 33.4975 42 30.4286V11.5714C42 8.50249 40.7809 5.55926 38.6108 3.38919C36.4407 1.21913 33.4975 0 30.4286 0V0ZM39.4286 30.4286C39.4286 32.8155 38.4804 35.1047 36.7925 36.7925C35.1047 38.4804 32.8155 39.4286 30.4286 39.4286H11.5714C9.18448 39.4286 6.89529 38.4804 5.20747 36.7925C3.51964 35.1047 2.57143 32.8155 2.57143 30.4286V11.5714C2.57143 9.18448 3.51964 6.89529 5.20747 5.20747C6.89529 3.51964 9.18448 2.57143 11.5714 2.57143H30.4286C32.8155 2.57143 35.1047 3.51964 36.7925 5.20747C38.4804 6.89529 39.4286 9.18448 39.4286 11.5714V30.4286ZM34.2857 9.85714C34.2857 10.281 34.16 10.6953 33.9246 11.0477C33.6891 11.4 33.3544 11.6747 32.9629 11.8369C32.5713 11.9991 32.1405 12.0415 31.7248 11.9588C31.3091 11.8761 30.9273 11.6721 30.6276 11.3724C30.3279 11.0727 30.1239 10.6909 30.0412 10.2752C29.9585 9.85952 30.0009 9.42866 30.1631 9.03711C30.3253 8.64555 30.6 8.31088 30.9523 8.07542C31.3047 7.83996 31.719 7.71429 32.1429 7.71429C32.7112 7.71429 33.2562 7.94005 33.6581 8.34191C34.06 8.74378 34.2857 9.28882 34.2857 9.85714Z" fill="black"/>
</svg>
