<svg width="28" height="28" viewBox="0 0 28 28" fill="none" xmlns="http://www.w3.org/2000/svg">
<path d="M13.8481 14.5357C14.6605 14.5357 15.465 14.3757 16.2156 14.0648C16.9662 13.7539 17.6482 13.2982 18.2227 12.7237C18.7971 12.1492 19.2528 11.4672 19.5637 10.7166C19.8746 9.96605 20.0347 9.16158 20.0347 8.34914C20.0347 7.53671 19.8746 6.73223 19.5637 5.98164C19.2528 5.23105 18.7971 4.54904 18.2227 3.97456C17.6482 3.40009 16.9662 2.94439 16.2156 2.63348C15.465 2.32258 14.6605 2.16256 13.8481 2.16256C12.2073 2.16256 10.6337 2.81435 9.4735 3.97456C8.31329 5.13477 7.6615 6.70836 7.6615 8.34914C7.6615 9.98993 8.31329 11.5635 9.4735 12.7237C10.6337 13.8839 12.2073 14.5357 13.8481 14.5357ZM13.8577 4.37938e-07C15.6686 -0.000589447 17.4294 0.594749 18.8683 1.69416C20.3073 2.79357 21.3445 4.33595 21.8199 6.08333C22.2953 7.8307 22.1824 9.68596 21.4988 11.3628C20.8151 13.0397 19.5987 14.4451 18.0371 15.362C23.1073 16.888 26.9155 21.1609 27.5988 26.4676C27.6634 26.9721 27.2881 27.4299 26.7602 27.4918C26.2336 27.5537 25.7524 27.1962 25.6878 26.6917C24.9454 20.9313 19.9563 16.5938 13.9058 16.5938C7.82235 16.5938 2.76859 20.9395 2.02758 26.6917C1.96296 27.1962 1.48178 27.5537 0.955237 27.4918C0.427315 27.4299 0.0519955 26.9721 0.116611 26.4676C0.79851 21.1829 4.62732 16.9155 9.70582 15.3757C8.13949 14.463 6.91748 13.0596 6.22873 11.3827C5.53998 9.70572 5.42285 7.84858 5.89546 6.09839C6.36806 4.3482 7.40407 2.80244 8.8433 1.70011C10.2825 0.597787 12.0448 0.000287693 13.8577 4.37938e-07Z" fill="black"/>
</svg>
