<svg width="17" height="18" viewBox="0 0 17 18" fill="none" xmlns="http://www.w3.org/2000/svg">
<path d="M1.13815 1.25143C1.24513 1.14418 1.37221 1.05909 1.51213 1.00103C1.65204 0.94297 1.80204 0.913086 1.95352 0.913086C2.10501 0.913086 2.255 0.94297 2.39492 1.00103C2.53483 1.05909 2.66192 1.14418 2.7689 1.25143L8.86348 7.34832L14.9581 1.25143C15.0651 1.14435 15.1923 1.05941 15.3322 1.00146C15.4721 0.943515 15.622 0.913689 15.7734 0.913689C15.9249 0.913689 16.0748 0.943515 16.2147 1.00146C16.3546 1.05941 16.4817 1.14435 16.5888 1.25143C16.6959 1.35851 16.7808 1.48562 16.8388 1.62553C16.8967 1.76543 16.9266 1.91537 16.9266 2.0668C16.9266 2.21823 16.8967 2.36818 16.8388 2.50808C16.7808 2.64798 16.6959 2.7751 16.5888 2.88218L10.4919 8.97676L16.5888 15.0713C16.6959 15.1784 16.7808 15.3055 16.8388 15.4454C16.8967 15.5853 16.9266 15.7353 16.9266 15.8867C16.9266 16.0381 16.8967 16.1881 16.8388 16.328C16.7808 16.4679 16.6959 16.595 16.5888 16.7021C16.4817 16.8092 16.3546 16.8941 16.2147 16.9521C16.0748 17.01 15.9249 17.0398 15.7734 17.0398C15.622 17.0398 15.4721 17.01 15.3322 16.9521C15.1923 16.8941 15.0651 16.8092 14.9581 16.7021L8.86348 10.6052L2.7689 16.7021C2.66182 16.8092 2.5347 16.8941 2.3948 16.9521C2.2549 17.01 2.10495 17.0398 1.95352 17.0398C1.80209 17.0398 1.65215 17.01 1.51224 16.9521C1.37234 16.8941 1.24522 16.8092 1.13815 16.7021C1.03107 16.595 0.946133 16.4679 0.888183 16.328C0.830234 16.1881 0.800408 16.0381 0.800408 15.8867C0.800408 15.7353 0.830234 15.5853 0.888183 15.4454C0.946133 15.3055 1.03107 15.1784 1.13815 15.0713L7.23503 8.97676L1.13815 2.88218C1.0309 2.7752 0.945806 2.64811 0.887747 2.5082C0.829689 2.36828 0.799805 2.21829 0.799805 2.0668C0.799805 1.91532 0.829689 1.76533 0.887747 1.62541C0.945806 1.48549 1.0309 1.35841 1.13815 1.25143Z" fill="black"/>
</svg>
