<svg viewBox="0 0 28 28" fill="none" xmlns="http://www.w3.org/2000/svg">
<path d="M27.1224 21.7299L27.6626 26.5605C27.6934 26.8486 27.6111 27.1058 27.4156 27.3322C27.2201 27.5482 26.9732 27.6562 26.6748 27.6562H0.994037C0.695662 27.6562 0.448731 27.5482 0.253244 27.3322C0.0577575 27.1058 -0.0245528 26.8486 0.00631357 26.5605L0.546475 21.7299H27.1224ZM25.6871 8.78148L27.0144 20.7422H0.654507L1.98176 8.78148C2.01263 8.53455 2.12066 8.3262 2.30586 8.15643C2.49105 7.98667 2.71226 7.90179 2.96948 7.90179H6.92038V9.87723C6.92038 10.4225 7.11329 10.8881 7.49912 11.2739C7.88495 11.6598 8.35052 11.8527 8.89582 11.8527C9.44113 11.8527 9.9067 11.6598 10.2925 11.2739C10.6784 10.8881 10.8713 10.4225 10.8713 9.87723V7.90179H16.7976V9.87723C16.7976 10.4225 16.9905 10.8881 17.3764 11.2739C17.7622 11.6598 18.2277 11.8527 18.7731 11.8527C19.3184 11.8527 19.7839 11.6598 20.1698 11.2739C20.5556 10.8881 20.7485 10.4225 20.7485 9.87723V7.90179H24.6994C24.9566 7.90179 25.1778 7.98667 25.363 8.15643C25.5482 8.3262 25.6562 8.53455 25.6871 8.78148ZM19.7608 5.92634V9.87723C19.7608 10.1447 19.663 10.3762 19.4675 10.5717C19.2721 10.7672 19.0406 10.865 18.7731 10.865C18.5055 10.865 18.274 10.7672 18.0786 10.5717C17.8831 10.3762 17.7853 10.1447 17.7853 9.87723V5.92634C17.7853 4.83573 17.3995 3.90459 16.6278 3.13293C15.8562 2.36128 14.9251 1.97545 13.8344 1.97545C12.7438 1.97545 11.8127 2.36128 11.041 3.13293C10.2694 3.90459 9.88355 4.83573 9.88355 5.92634V9.87723C9.88355 10.1447 9.7858 10.3762 9.59032 10.5717C9.39483 10.7672 9.16333 10.865 8.89582 10.865C8.62831 10.865 8.39682 10.7672 8.20133 10.5717C8.00584 10.3762 7.9081 10.1447 7.9081 9.87723V5.92634C7.9081 4.29042 8.48684 2.89372 9.64433 1.73623C10.8018 0.578744 12.1985 0 13.8344 0C15.4704 0 16.8671 0.578744 18.0245 1.73623C19.182 2.89372 19.7608 4.29042 19.7608 5.92634Z" fill="#76A765"/>
</svg>
