<svg  viewBox="0 0 36 29" fill="none" xmlns="http://www.w3.org/2000/svg">
<path d="M0.622208 13.9614L4.32617 5.14202C4.42069 4.91429 4.57879 4.71999 4.78078 4.58332C4.98277 4.44666 5.2197 4.37368 5.46205 4.37348H9.16601V1.85366C9.16601 1.51951 9.29609 1.19905 9.52764 0.962769C9.75918 0.72649 10.0732 0.59375 10.4007 0.59375H33.8591C34.1865 0.59375 34.5006 0.72649 34.7321 0.962769C34.9637 1.19905 35.0938 1.51951 35.0938 1.85366V23.2721C35.0938 23.6063 34.9637 23.9267 34.7321 24.163C34.5006 24.3993 34.1865 24.532 33.8591 24.532H31.2169C30.9326 25.5996 30.3119 26.5421 29.4506 27.214C28.5894 27.886 27.5353 28.25 26.4512 28.25C25.367 28.25 24.313 27.886 23.4517 27.214C22.5904 26.5421 21.9697 25.5996 21.6854 24.532H13.9318C13.6475 25.5996 13.0268 26.5421 12.1655 27.214C11.3042 27.886 10.2502 28.25 9.16601 28.25C8.08186 28.25 7.02783 27.886 6.16654 27.214C5.30525 26.5421 4.68457 25.5996 4.40025 24.532H1.75809C1.43064 24.532 1.1166 24.3993 0.885056 24.163C0.653515 23.9267 0.523438 23.6063 0.523438 23.2721V14.4527C0.523754 14.2839 0.557343 14.1168 0.622208 13.9614ZM9.16601 6.89329H6.27692L3.63477 13.1928H9.16601V6.89329ZM26.4512 25.7919C26.9396 25.7919 27.417 25.6441 27.823 25.3673C28.2291 25.0904 28.5456 24.6968 28.7325 24.2364C28.9194 23.776 28.9683 23.2693 28.873 22.7805C28.7778 22.2917 28.5426 21.8427 28.1972 21.4903C27.8519 21.1379 27.4119 20.8979 26.9329 20.8007C26.4539 20.7035 25.9574 20.7534 25.5062 20.9441C25.055 21.1348 24.6693 21.4578 24.398 21.8722C24.1267 22.2865 23.9819 22.7737 23.9819 23.2721C23.9819 23.9404 24.242 24.5813 24.7051 25.0539C25.1682 25.5264 25.7963 25.7919 26.4512 25.7919ZM13.9318 22.0122H21.6854C21.9697 20.9446 22.5904 20.0021 23.4517 19.3302C24.313 18.6583 25.367 18.2942 26.4512 18.2942C27.5353 18.2942 28.5894 18.6583 29.4506 19.3302C30.3119 20.0021 30.9326 20.9446 31.2169 22.0122H32.6244V3.11357H11.6353V18.938C12.1975 19.271 12.6898 19.714 13.0839 20.2415C13.478 20.769 13.7661 21.3708 13.9318 22.0122ZM9.16601 25.7919C9.6544 25.7919 10.1318 25.6441 10.5379 25.3673C10.944 25.0904 11.2605 24.6968 11.4474 24.2364C11.6343 23.776 11.6832 23.2693 11.5879 22.7805C11.4926 22.2917 11.2574 21.8427 10.9121 21.4903C10.5667 21.1379 10.1268 20.8979 9.64775 20.8007C9.16875 20.7035 8.67226 20.7534 8.22105 20.9441C7.76984 21.1348 7.38419 21.4578 7.11286 21.8722C6.84153 22.2865 6.69671 22.7737 6.69671 23.2721C6.69671 23.9404 6.95687 24.5813 7.41995 25.0539C7.88304 25.5264 8.51111 25.7919 9.16601 25.7919ZM2.99274 22.0122H4.40025C4.67327 20.9331 5.28912 19.9768 6.15143 19.2929C7.01375 18.609 8.07389 18.2361 9.16601 18.2325V15.7127H2.99274V22.0122Z" fill="#76A765"/>
</svg>
